<svg xmlns="http://www.w3.org/2000/svg" xmlns:xlink="http://www.w3.org/1999/xlink" width="34" height="33.75" viewBox="0 0 34 33.75">
  <metadata><?xpacket begin="﻿" id="W5M0MpCehiHzreSzNTczkc9d"?>
<x:xmpmeta xmlns:x="adobe:ns:meta/" x:xmptk="Adobe XMP Core 5.6-c138 79.159824, 2016/09/14-01:09:01        ">
   <rdf:RDF xmlns:rdf="http://www.w3.org/1999/02/22-rdf-syntax-ns#">
      <rdf:Description rdf:about=""/>
   </rdf:RDF>
</x:xmpmeta>
                                                                                                    
                                                                                                    
                                                                                                    
                                                                                                    
                                                                                                    
                                                                                                    
                                                                                                    
                                                                                                    
                                                                                                    
                                                                                                    
                                                                                                    
                                                                                                    
                                                                                                    
                                                                                                    
                                                                                                    
                                                                                                    
                                                                                                    
                                                                                                    
                                                                                                    
                                                                                                    
                           
<?xpacket end="w"?></metadata>
<defs>
    <style>
      .cls-1 {
        fill: #fff;
        fill-rule: evenodd;
        filter: url(#filter);
      }
    </style>
    <filter id="filter" x="349" y="3478.25" width="34" height="33.75" filterUnits="userSpaceOnUse">
      <feOffset result="offset" dy="1" in="SourceAlpha"/>
      <feGaussianBlur result="blur" stdDeviation="1"/>
      <feFlood result="flood" flood-opacity="0.25"/>
      <feComposite result="composite" operator="in" in2="blur"/>
      <feBlend result="blend" in="SourceGraphic"/>
    </filter>
  </defs>
  <path id="dribbble_" data-name="dribbble " class="cls-1" d="M365.546,3505.72a12,12,0,1,1,11.952-12A11.974,11.974,0,0,1,365.546,3505.72Zm9.785-10.74a21.513,21.513,0,0,0-6.279-.04,43.555,43.555,0,0,1,1.915,7.05A9.653,9.653,0,0,0,375.331,3494.98Zm-6.247,7.98a44.318,44.318,0,0,0-1.963-7.59c-4.928,1.38-7.619,6.16-7.627,6.16A9.866,9.866,0,0,0,369.084,3502.96Zm-11.043-2.82c3.733-5.64,8.4-6.5,8.4-6.5l-0.8-1.76s-3.212,1.24-9.94,1.45A9.947,9.947,0,0,0,358.041,3500.14Zm-2.136-8.5a34.661,34.661,0,0,0,8.92-1.33,33.946,33.946,0,0,0-3.721-5.42A10.037,10.037,0,0,0,355.905,3491.64Zm7.144-7.48a21.787,21.787,0,0,1,3.722,5.47,16.342,16.342,0,0,0,5.217-3.39A9.834,9.834,0,0,0,363.049,3484.16Zm10.133,3.3a15.345,15.345,0,0,1-5.629,3.75c0.3,0.64.579,1.31,0.851,2a24.659,24.659,0,0,1,6.984-.02A9.721,9.721,0,0,0,373.182,3487.46Zm-7.538-9.2a15.375,15.375,0,1,1-15.35,15.38A15.368,15.368,0,0,1,365.644,3478.26Z" transform="translate(-349 -3478.25)"/>
</svg>
